<svg id="Group_10" data-name="Group 10" xmlns="http://www.w3.org/2000/svg" width="111.367" height="72" viewBox="0 0 111.367 72">
  <path id="Path_228" data-name="Path 228" d="M574.192,316.779l-5.1,5.123-9.806-1.339v0a2.825,2.825,0,0,0-.357-.028,2.642,2.642,0,0,0-1.867.775L545.384,334l2.73,2.73,9.635-8.629a1.675,1.675,0,0,1,2.365,0l.232.232a1.674,1.674,0,0,1,0,2.363l-8.616,9.666,2.74,2.72,9.605-8.644a1.673,1.673,0,1,1,2.368,2.363l-8.629,9.635,2.73,2.73c-5.171,5.174-9.462,7.574-14.771,2.265l-19.13-19.13,35.877-35.877L574.18,308.08A6.161,6.161,0,0,1,574.192,316.779Z" transform="translate(-526.647 -296.177)" fill="#ff5344"/>
  <path id="Path_229" data-name="Path 229" d="M574.192,316.779l-5.1,5.123-9.806-1.339v0a2.825,2.825,0,0,0-.357-.028,2.642,2.642,0,0,0-1.867.775L545.384,334l2.73,2.73,9.635-8.629a1.675,1.675,0,0,1,2.365,0l.232.232a1.674,1.674,0,0,1,0,2.363l-8.616,9.666,2.74,2.72,9.605-8.644a1.673,1.673,0,1,1,2.368,2.363l-8.629,9.635,2.73,2.73c-5.171,5.174-9.462,7.574-14.771,2.265l-19.13-19.13,35.877-35.877L574.18,308.08A6.161,6.161,0,0,1,574.192,316.779Z" transform="translate(-526.647 -296.177)" fill="#ff5344"/>
  <path id="Path_230" data-name="Path 230" d="M767.643,316.339c-8.48-8.48-19.968-2.9-28.176,5.184-.091.086-.181.176-.272.267-4.321,4.321-5.521,10.363-3.231,14.59l-29.951,29.948-16.747-16.747c5.31,5.31,9.6,2.909,14.771-2.265l12.688-11.679a2.641,2.641,0,0,0,.755-2.169h0l-1.115-9.726,29.264-29.414Z" transform="translate(-670.136 -294.328)" fill="#ff5344"/>
  <path id="Path_231" data-name="Path 231" d="M1103.831,463.566l-35.9,35.9-11.6-11.6a6.165,6.165,0,0,1,0-8.718l5.747-5.744c4.208,2.055,10.055.806,14.265-3.4,5.067-5.067,5.85-12.5,1.747-16.6-4.029-4.029-11.271-3.347-16.328,1.478,2.579-2.54,2.864-7.3,6.164-9.134,6.354-3.54,16.21-1.875,22.031,3.947Z" transform="translate(-992.464 -427.719)" fill="#ff5344"/>
</svg>
