<svg xmlns="http://www.w3.org/2000/svg" width="390.136" height="390.136" viewBox="0 0 390.136 390.136">
  <g id="Group_33" data-name="Group 33" transform="translate(-490.613 -64.325)">
    <circle id="Ellipse_13" data-name="Ellipse 13" cx="137.934" cy="137.934" r="137.934" transform="translate(490.613 259.393) rotate(-45)" fill="#ffe4e2"/>
    <g id="Group_27" data-name="Group 27" transform="translate(715.547 101.754)">
      <path id="Rectangle_7" data-name="Rectangle 7" d="M1.647,0H25.788a1.647,1.647,0,0,1,1.647,1.647V14.929a0,0,0,0,1,0,0H0a0,0,0,0,1,0,0V1.647A1.647,1.647,0,0,1,1.647,0Z" transform="translate(52.677 29.896) rotate(19.048)" fill="#4b4c6b"/>
      <rect id="Rectangle_8" data-name="Rectangle 8" width="24.75" height="20.926" rx="2.415" transform="translate(64.42 0) rotate(19.048)" fill="#eb3b3b"/>
      <rect id="Rectangle_9" data-name="Rectangle 9" width="14.286" height="11.229" transform="translate(62.535 21.488) rotate(19.048)" fill="#d7d1eb"/>
      <path id="Rectangle_10" data-name="Rectangle 10" d="M1.142,0H17.888A1.142,1.142,0,0,1,19.03,1.142v9.213a0,0,0,0,1,0,0H0a0,0,0,0,1,0,0V1.142A1.142,1.142,0,0,1,1.142,0Z" transform="translate(17.178 41.038) rotate(-25.952)" fill="#4b4c6b"/>
      <rect id="Rectangle_11" data-name="Rectangle 11" width="17.167" height="14.515" rx="1.675" transform="translate(8.274 20.615) rotate(-25.953)" fill="#7fad27"/>
      <rect id="Rectangle_12" data-name="Rectangle 12" width="9.91" height="7.789" transform="matrix(0.899, -0.438, 0.438, 0.899, 17.889, 32.079)" fill="#d7d1eb"/>
      <circle id="Ellipse_14" data-name="Ellipse 14" cx="48.576" cy="48.576" r="48.576" transform="translate(0 35.232)" fill="#4b4c6b"/>
      <circle id="Ellipse_15" data-name="Ellipse 15" cx="39.296" cy="39.296" r="39.296" transform="matrix(0.965, -0.263, 0.263, 0.965, 0.324, 56.237)" fill="#fff"/>
      <path id="Path_233" data-name="Path 233" d="M680.064,123.025l-10.826,31.356,31.354,10.826A33.172,33.172,0,0,0,680.064,123.025Z" transform="translate(-620.662 -70.573)" fill="#eb3b3b"/>
      <path id="Path_234" data-name="Path 234" d="M670.182,141.776l21.164-6.433-16.667,14.542a4.741,4.741,0,0,1-7.264-1.274h0A4.741,4.741,0,0,1,670.182,141.776Z" transform="translate(-621.947 -64.03)" fill="#4b4c6b"/>
    </g>
    <g id="Group_30" data-name="Group 30" transform="translate(552.586 112.916)">
      <path id="Path_235" data-name="Path 235" d="M698.27,355.289,590.686,373.98a17.62,17.62,0,0,1-20.377-14.344l-38.96-224.247a17.62,17.62,0,0,1,14.344-20.376L653.277,96.322a17.62,17.62,0,0,1,20.376,14.344l38.961,224.247A17.622,17.622,0,0,1,698.27,355.289Z" transform="translate(-531.086 -96.059)" fill="#4b4c6b"/>
      <path id="Path_236" data-name="Path 236" d="M631.017,107.738l.429,2.468a7.857,7.857,0,0,1-6.4,9.086L574.7,128.041a7.859,7.859,0,0,1-9.088-6.4l-.429-2.468-21.261,3.693a7.612,7.612,0,0,0-6.2,8.8L575.952,351.7a7.611,7.611,0,0,0,8.8,6.2L693.11,339.07a7.611,7.611,0,0,0,6.2-8.8L661.079,110.24a7.61,7.61,0,0,0-8.8-6.2Z" transform="translate(-527.62 -91.878)" fill="#fff"/>
      <g id="Group_28" data-name="Group 28" transform="translate(31.93 71.918)">
        <path id="Path_237" data-name="Path 237" d="M577.484,153.692a12.865,12.865,0,1,0-21.734,11.322l-.006.008,9.506,9.549a3.374,3.374,0,0,0,5.445-.946l5.727-12.2-.008,0A12.8,12.8,0,0,0,577.484,153.692Z" transform="translate(-551.939 -143.028)" fill="#eb3b3b"/>
        <path id="Path_238" data-name="Path 238" d="M570.257,152.738a7.44,7.44,0,1,0-6.057,8.605A7.44,7.44,0,0,0,570.257,152.738Z" transform="translate(-550.056 -141.146)" fill="#fff"/>
      </g>
      <g id="Group_29" data-name="Group 29" transform="translate(125.976 192.919)">
        <path id="Path_239" data-name="Path 239" d="M638.9,232.716a12.864,12.864,0,1,0-21.732,11.322l-.008.008,9.506,9.549a3.373,3.373,0,0,0,5.445-.946l5.727-12.2-.008,0A12.8,12.8,0,0,0,638.9,232.716Z" transform="translate(-613.359 -222.051)" fill="#79d3fe"/>
        <path id="Path_240" data-name="Path 240" d="M631.676,231.762a7.441,7.441,0,1,0-6.057,8.6A7.441,7.441,0,0,0,631.676,231.762Z" transform="translate(-611.477 -220.169)" fill="#fff"/>
      </g>
      <path id="Path_241" data-name="Path 241" d="M564.586,170.5l61.784-10.734a16.675,16.675,0,0,1,19.284,13.574h0a16.677,16.677,0,0,1-13.576,19.285l-59.436,10.326a15.246,15.246,0,0,0-12.412,17.63h0A15.246,15.246,0,0,0,577.862,233l63.427-11.018a12.626,12.626,0,0,1,14.6,10.277h0a12.628,12.628,0,0,1-10.279,14.6l-45.12,7.838a23.348,23.348,0,0,0-19.005,27h0a23.346,23.346,0,0,0,27,19.005l52.107-9.052" transform="translate(-515.726 -62.349)" fill="none" stroke="#78779f" stroke-linecap="round" stroke-miterlimit="10" stroke-width="1.867" stroke-dasharray="0 3.734 0"/>
    </g>
    <g id="Group_32" data-name="Group 32" transform="translate(572.433 186.506)">
      <path id="Path_244" data-name="Path 244" d="M577.515,196.964s.313-18.292-7.207-16.255S577.515,196.964,577.515,196.964Z" transform="translate(-531.236 -124.767)" fill="none" stroke="#eb3b3b" stroke-linecap="round" stroke-miterlimit="10" stroke-width="2.456"/>
      <path id="Path_245" data-name="Path 245" d="M581.191,195.125s-13.17-15.307-18.489-9.988C554.869,192.97,581.191,195.125,581.191,195.125Z" transform="translate(-534.912 -122.928)" fill="none" stroke="#eb3b3b" stroke-linecap="round" stroke-miterlimit="10" stroke-width="2.456"/>
      <path id="Path_246" data-name="Path 246" d="M631.552,175.626l-2.386,9.4s-17.861-5.485-18.017-5.955,0-12.847,0-12.847Z" transform="translate(-508.442 -132.376)" fill="#ff9861"/>
      <path id="Path_247" data-name="Path 247" d="M625.89,220.971H602.074a7.834,7.834,0,0,0-7.834,7.834v7.835h31.65a7.835,7.835,0,0,0,7.834-7.835h0A7.835,7.835,0,0,0,625.89,220.971Z" transform="translate(-517.386 -103.296)" fill="#2d2c3e"/>
      <circle id="Ellipse_16" data-name="Ellipse 16" cx="34.196" cy="34.196" r="34.196" transform="translate(167.459 174.669)" fill="#4b4c6b"/>
      <circle id="Ellipse_17" data-name="Ellipse 17" cx="21.144" cy="21.144" r="21.144" transform="translate(171.752 208.865) rotate(-45)" fill="#fff"/>
      <circle id="Ellipse_18" data-name="Ellipse 18" cx="34.196" cy="34.196" r="34.196" transform="translate(15.708 174.669)" fill="#4b4c6b"/>
      <circle id="Ellipse_19" data-name="Ellipse 19" cx="21.144" cy="21.144" r="21.144" transform="translate(20.001 208.865) rotate(-45)" fill="#fff"/>
      <path id="Path_248" data-name="Path 248" d="M672.632,249.4H659.706v23.233H688.9l-2.958-12.162C684.351,253.951,678.884,249.4,672.632,249.4Z" transform="translate(-482.611 -88.193)" fill="#ef6262"/>
      <path id="Path_249" data-name="Path 249" d="M686.174,278.073l-6.043-5.8-15.463-63.778h-8.554l16.6,73.09Z" transform="translate(-484.519 -109.925)" fill="#ef6262"/>
      <path id="Path_250" data-name="Path 250" d="M724.1,276.458s-7.406-22.524-32.354-22.524l-21.7,5.695L659.5,270.754c-9.273,9.792-9.236,12.859-10.406,23.9,0,0,40.545,7.4,45.616,3.568Z" transform="translate(-488.247 -85.786)" fill="#bd1141"/>
      <path id="Path_251" data-name="Path 251" d="M694.712,291.079l12.733-9.429c-3.741-6.73-10.555-15.211-20.849-14.193-16.808,1.664-28.718,11.649-37.5,20.054C649.1,287.511,689.641,294.914,694.712,291.079Z" transform="translate(-488.247 -78.647)" fill="#eb3b3b"/>
      <path id="Path_252" data-name="Path 252" d="M660.385,242.172A10.967,10.967,0,0,0,649.417,231.2H602.609a58.56,58.56,0,0,0-58.561,58.559v7.287a9.674,9.674,0,0,0,9.676,9.674h88.454V275.405a9.1,9.1,0,0,1,9.1-9.1h0a9.1,9.1,0,0,0,9.1-9.1Z" transform="translate(-544.048 -97.86)" fill="#bd1141"/>
      <path id="Rectangle_13" data-name="Rectangle 13" d="M27.219,0H56.137A27.219,27.219,0,0,1,83.356,27.219V57.973a0,0,0,0,1,0,0H0a0,0,0,0,1,0,0V27.219A27.219,27.219,0,0,1,27.219,0Z" transform="translate(8.226 150.892)" fill="#eb3b3b"/>
      <rect id="Rectangle_14" data-name="Rectangle 14" width="59.396" height="16.452" transform="translate(91.582 192.413)" fill="#bd1141"/>
      <rect id="Rectangle_15" data-name="Rectangle 15" width="52.622" height="16.452" transform="translate(188.192 171.655) rotate(135)" fill="#bd1141"/>
      <rect id="Rectangle_16" data-name="Rectangle 16" width="52.622" height="5.75" transform="translate(188.192 171.655) rotate(135)" fill="#eb3b3b"/>
      <path id="Path_253" data-name="Path 253" d="M599.02,214.8s.493,20.207,20.7,20.207h33.515a76.649,76.649,0,0,0-4.436,13.061c-1.971,7.886-11.607,47.812-11.607,47.812h17s24.176-63.09,23.93-70.238S637.957,214.8,637.957,214.8Z" transform="translate(-514.847 -106.575)" fill="#4b4c6b"/>
      <path id="Path_254" data-name="Path 254" d="M679.6,281.59l-16.6-73.1h0A25.483,25.483,0,0,0,643.84,239.2l14.925,63.214Z" transform="translate(-491.404 -109.925)" fill="#eb3b3b"/>
      <rect id="Rectangle_17" data-name="Rectangle 17" width="59.396" height="8.226" transform="translate(91.582 200.639)" fill="#eb3b3b"/>
      <path id="Path_255" data-name="Path 255" d="M680.789,217.555h-28.18a7.486,7.486,0,0,1-7.486-7.485v-6.408a8.289,8.289,0,0,1,3.643-6.864l4.006-2.713a15.433,15.433,0,0,1,8.654-2.657h19.364Z" transform="translate(-490.357 -118.989)" fill="#eb3b3b"/>
      <rect id="Rectangle_18" data-name="Rectangle 18" width="10.283" height="26.126" transform="translate(180.149 72.44)" fill="#d7d1eb"/>
      <g id="Group_31" data-name="Group 31" transform="translate(147.935 85.503)">
        <path id="Path_256" data-name="Path 256" d="M647.615,215.445l8.532-8.532a4.073,4.073,0,0,0,0-5.76h0a4.075,4.075,0,0,0-5.762,0l-8.53,8.53a4.075,4.075,0,0,0,0,5.762h0A4.073,4.073,0,0,0,647.615,215.445Z" transform="translate(-640.662 -199.96)" fill="#4b4c6b"/>
        <circle id="Ellipse_20" data-name="Ellipse 20" cx="4.074" cy="4.074" r="4.074" transform="translate(0 8.531)" fill="#2d2c3e"/>
      </g>
      <rect id="Rectangle_19" data-name="Rectangle 19" width="61.146" height="61.146" transform="translate(15.708 72.198)" fill="#f4ff70"/>
      <path id="Path_257" data-name="Path 257" d="M640.557,160.452s-.277,2.1-.72,5.005c-.9,5.9-2.485,15.131-3.834,16.9-2.012,2.632-17.446-2.664-17.446-2.664l2.741-22.259Z" transform="translate(-504.469 -137.049)" fill="#ff9861"/>
      <path id="Path_258" data-name="Path 258" d="M640.942,167.258l-1.2-4.183L625.8,167.258l-6.627,4.39-.62,5.041s15.435,5.3,17.446,2.664A33.036,33.036,0,0,0,640.942,167.258Z" transform="translate(-504.469 -134.05)" fill="#f4ff70"/>
      <path id="Path_259" data-name="Path 259" d="M601.556,237.121h37.9V183.726c0-8.215-8.909-10.951-19.506-10.951s-14.831,14.915-17.46,28.869c-1.719,9.126-4.459,21.49-6.149,28.953A5.343,5.343,0,0,0,601.556,237.121Z" transform="translate(-516.343 -128.898)" fill="#eb3b3b"/>
      <path id="Path_260" data-name="Path 260" d="M630.778,207.428l-6.422-24.038a8.372,8.372,0,0,0-10.4-5.884h0a8.373,8.373,0,0,0-5.724,10.38l6.391,22.012a13.826,13.826,0,0,0,10.669,9.723l28.9,5.551,1.726-12.075Z" transform="translate(-510.133 -126.56)" fill="#bd1141"/>
      <path id="Path_261" data-name="Path 261" d="M639.855,202l4.531-2.617a9.82,9.82,0,0,1,7.535-.957h0a6.774,6.774,0,0,1,4.923,5.825h0a11.814,11.814,0,0,1-2.608,8.7l-.6.733a5.46,5.46,0,0,1-6.955,1.271l-1.533-.885h-7.019Z" transform="translate(-494.072 -115.462)" fill="#ff9861"/>
      <path id="Path_262" data-name="Path 262" d="M620.517,186.337A21.727,21.727,0,0,1,608.17,174.1c-3.715-9.443,2.942-24,13.778-28.021s22.579-1.758,26.628,6.038c3.419,6.586,1.548,13.468-.93,15.016s-15.635.775-15.635.775S634.878,190.372,620.517,186.337Z" transform="translate(-510.537 -144.119)" fill="#211f20"/>
      <path id="Path_263" data-name="Path 263" d="M625.149,267.75l-3.779,11.335h36.309a7.627,7.627,0,0,0-5.364-8.272l-10.162-3.064Z" transform="translate(-502.975 -78.447)" fill="#ef6262"/>
      <path id="Path_264" data-name="Path 264" d="M643.2,164.892c-.441-2.582-1.628-7.356-4.14-9.869-5.171-5.171-16.157-5.171-16.157-5.171l2.055,3.134s-4.779-2.246-11.323,2.82a13.54,13.54,0,0,0-5.474,12.064s3.323-7.365,8.494-9.01,12.378,2.591,12.378,2.591l-.753-5.175s4.992,1.275,7.275,8.737C637.889,165.072,640.812,165.079,643.2,164.892Z" transform="translate(-510.028 -141.074)"/>
      <path id="Path_265" data-name="Path 265" d="M595.783,262.421H565.559a1.885,1.885,0,0,1-1.885-1.885h0a1.884,1.884,0,0,1,1.885-1.883h30.224a1.884,1.884,0,0,1,1.883,1.883h0A1.884,1.884,0,0,1,595.783,262.421Z" transform="translate(-533.623 -83.279)" fill="#4b4c6b"/>
      <path id="Path_266" data-name="Path 266" d="M595.783,266.195H565.559a1.885,1.885,0,0,1-1.885-1.885h0a1.885,1.885,0,0,1,1.885-1.885h30.224a1.884,1.884,0,0,1,1.883,1.885h0A1.884,1.884,0,0,1,595.783,266.195Z" transform="translate(-533.623 -81.276)" fill="#4b4c6b"/>
      <path id="Path_267" data-name="Path 267" d="M595.783,269.966H565.559a1.884,1.884,0,0,1-1.885-1.883h0a1.885,1.885,0,0,1,1.885-1.885h30.224a1.884,1.884,0,0,1,1.883,1.885h0A1.884,1.884,0,0,1,595.783,269.966Z" transform="translate(-533.623 -79.271)" fill="#4b4c6b"/>
      <path id="Path_268" data-name="Path 268" d="M595.783,273.74H565.559a1.885,1.885,0,0,1-1.885-1.885h0a1.885,1.885,0,0,1,1.885-1.885h30.224a1.884,1.884,0,0,1,1.883,1.885h0A1.884,1.884,0,0,1,595.783,273.74Z" transform="translate(-533.623 -77.268)" fill="#4b4c6b"/>
      <line id="Line_1" data-name="Line 1" y1="60.904" transform="translate(46.281 72.44)" fill="none" stroke="#eb3b3b" stroke-linecap="round" stroke-miterlimit="10" stroke-width="2.456"/>
      <line id="Line_2" data-name="Line 2" x2="61.146" transform="translate(15.708 102.891)" fill="none" stroke="#eb3b3b" stroke-linecap="round" stroke-miterlimit="10" stroke-width="2.456"/>
    </g>
    <path id="Path_270" data-name="Path 270" d="M544.838,243.1h-4.6a2.629,2.629,0,0,1-2.629-2.629h0a2.628,2.628,0,0,1,2.629-2.629h4.6a2.629,2.629,0,0,1,2.629,2.629h0A2.63,2.63,0,0,1,544.838,243.1Z" transform="translate(24.965 92.17)" fill="#fffcfc"/>
    <path id="Path_271" data-name="Path 271" d="M623.758,243.1H549.993a2.63,2.63,0,0,1-2.631-2.629h0a2.629,2.629,0,0,1,2.631-2.629h73.766a2.629,2.629,0,0,1,2.629,2.629h0A2.63,2.63,0,0,1,623.758,243.1Z" transform="translate(30.145 92.17)" fill="#c9edff"/>
    <rect id="Rectangle_20" data-name="Rectangle 20" width="9.857" height="5.259" rx="1.717" transform="translate(741.149 248.919)" fill="#fffcfc"/>
    <rect id="Rectangle_21" data-name="Rectangle 21" width="53.089" height="5.259" rx="1.717" transform="translate(756.081 248.919)" fill="#fffcfc"/>
    <path id="Path_272" data-name="Path 272" d="M593.816,253.076H529.464a2.63,2.63,0,0,1-2.629-2.629h0a2.63,2.63,0,0,1,2.629-2.629h64.352a2.63,2.63,0,0,1,2.629,2.629h0A2.63,2.63,0,0,1,593.816,253.076Z" transform="translate(19.241 97.471)" fill="#fffcfc"/>
    <path id="Path_273" data-name="Path 273" d="M731.289,200.765h-47.1a2.63,2.63,0,0,1-2.63-2.631h0a2.63,2.63,0,0,1,2.63-2.629h47.1a2.629,2.629,0,0,1,2.629,2.629h0A2.629,2.629,0,0,1,731.289,200.765Z" transform="translate(101.43 69.682)" fill="#fffcfc"/>
    <path id="Path_274" data-name="Path 274" d="M645.9,117.049h-2.194a2.56,2.56,0,0,1-2.562-2.56v-2.2a2.473,2.473,0,0,0-1.983-2.477,2.385,2.385,0,0,0-2.782,2.35v2.323a2.559,2.559,0,0,1-2.56,2.56h-2.2a2.473,2.473,0,0,0-2.477,1.983,2.384,2.384,0,0,0,2.35,2.782h2.323a2.56,2.56,0,0,1,2.56,2.56v2.2a2.473,2.473,0,0,0,1.983,2.477,2.384,2.384,0,0,0,2.782-2.35v-2.323a2.561,2.561,0,0,1,2.562-2.56h2.323a2.383,2.383,0,0,0,2.349-2.782A2.471,2.471,0,0,0,645.9,117.049Z" transform="translate(73.571 24.147)" fill="#f5c849"/>
    <path id="Path_275" data-name="Path 275" d="M545.014,208.174H542.82a2.562,2.562,0,0,1-2.562-2.562v-2.2a2.47,2.47,0,0,0-1.983-2.476,2.383,2.383,0,0,0-2.782,2.349v2.323a2.56,2.56,0,0,1-2.56,2.562h-2.2a2.471,2.471,0,0,0-2.477,1.981,2.385,2.385,0,0,0,2.35,2.782h2.323a2.56,2.56,0,0,1,2.56,2.562v2.194a2.471,2.471,0,0,0,1.983,2.477,2.383,2.383,0,0,0,2.782-2.349V215.5a2.562,2.562,0,0,1,2.562-2.562h2.323a2.383,2.383,0,0,0,2.349-2.782A2.47,2.47,0,0,0,545.014,208.174Z" transform="translate(19.98 72.552)" fill="#f5c849"/>
    <path id="Path_276" data-name="Path 276" d="M704.694,212.281H702.5a2.561,2.561,0,0,1-2.562-2.56v-2.2a2.471,2.471,0,0,0-1.981-2.477,2.386,2.386,0,0,0-2.784,2.35v2.323a2.56,2.56,0,0,1-2.56,2.56h-2.2a2.473,2.473,0,0,0-2.478,1.983,2.385,2.385,0,0,0,2.351,2.782h2.323a2.56,2.56,0,0,1,2.56,2.56v2.2a2.473,2.473,0,0,0,1.983,2.477,2.384,2.384,0,0,0,2.782-2.35v-2.323a2.561,2.561,0,0,1,2.562-2.56h2.323a2.383,2.383,0,0,0,2.349-2.782A2.471,2.471,0,0,0,704.694,212.281Z" transform="translate(104.802 74.734)" fill="#f5c849"/>
    <path id="Path_277" data-name="Path 277" d="M683.585,228.834a2.747,2.747,0,1,1-2.747-2.747A2.746,2.746,0,0,1,683.585,228.834Z" transform="translate(99.588 85.927)" fill="#fffcfc"/>
    <path id="Path_278" data-name="Path 278" d="M700.4,176.189a2.746,2.746,0,1,1-2.747-2.747A2.746,2.746,0,0,1,700.4,176.189Z" transform="translate(108.522 57.962)" fill="#fffcfc"/>
    <circle id="Ellipse_21" data-name="Ellipse 21" cx="2.746" cy="2.746" r="2.746" transform="translate(564.758 309.268)" fill="#fffcfc"/>
  </g>
</svg>
