<svg xmlns="http://www.w3.org/2000/svg" width="43.722" height="45.309" viewBox="0 0 43.722 45.309">
  <g id="analytics" transform="translate(-9 512)">
    <path id="Path_338" data-name="Path 338" d="M24.347-511.8c-.2.177-.248.3-.283.752l-.035.549H16.815c-7.638,0-7.6,0-7.762.4-.027.08-.053,6.726-.053,14.772v14.63l.2.186.2.195H22.541v.443c0,.487.177.92.4,1.009a8.963,8.963,0,0,0,1.2.053,4.5,4.5,0,0,1,1.053.062c0,.044-2.46,2.531-5.461,5.532-5.24,5.24-5.461,5.479-5.461,5.788a.707.707,0,0,0,1.036.646c.106-.053,2.885-2.779,6.169-6.063l5.974-5.965h2.611v5.664c0,6.2,0,6.187.5,6.381a.712.712,0,0,0,.929-.363c.15-.283.159-.761.159-6v-5.682h2.611l5.974,5.965c3.284,3.284,6.063,6.01,6.169,6.063a.626.626,0,0,0,.788-.115.6.6,0,0,0,.248-.531c0-.31-.221-.549-5.461-5.788-3-3-5.461-5.487-5.461-5.532a4.5,4.5,0,0,1,1.053-.062,8.963,8.963,0,0,0,1.2-.053c.221-.089.4-.522.4-1.009v-.443H52.342l.186-.2.195-.2v-14.612c0-8.036-.027-14.683-.053-14.763-.159-.4-.124-.4-7.762-.4H37.694l-.035-.549c-.035-.451-.08-.575-.283-.752l-.239-.2H24.586Zm11.824,2.053v.752H25.551v-1.5H36.171Zm-12.125,1.2a1.088,1.088,0,0,0,.345.938c.2.159,12.736.159,12.94,0a1.088,1.088,0,0,0,.345-.938v-.451H51.218v27.171H39.181v-.478a.929.929,0,0,0-.212-.735l-.212-.248H22.966l-.212.248a.929.929,0,0,0-.212.735v.478H10.5v-27.171H24.046Zm13.63,27.517v.708H24.046v-1.416h13.63Z" transform="translate(0)" fill="#ff5344"/>
    <path id="Path_339" data-name="Path 339" d="M359.161-443.914a.714.714,0,0,0-.177,1.168c.177.195.23.2,2.009.2s1.832-.009,2.009-.2a.712.712,0,0,0-.195-1.177A12.584,12.584,0,0,0,359.161-443.914Z" transform="translate(-318.803 -61.935)" fill="#ff5344"/>
    <path id="Path_340" data-name="Path 340" d="M427.591-443.855a.736.736,0,0,0-.31,1.221c.2.212.265.221,1.257.221,1.142-.009,1.292-.053,1.452-.513a.712.712,0,0,0-.46-.894A6.8,6.8,0,0,0,427.591-443.855Z" transform="translate(-381.064 -62.064)" fill="#ff5344"/>
    <path id="Path_341" data-name="Path 341" d="M54.4-426.867a1.241,1.241,0,0,0-.469.416c-.177.283-.177.425-.177,8.187v7.886l-.929.035c-.814.027-.947.053-1.124.221a.721.721,0,0,0,.053,1.053l.239.212H87.2l.239-.212a.721.721,0,0,0,.053-1.053c-.177-.168-.31-.195-1.124-.221l-.929-.035v-3.762c0-3.664-.009-3.77-.186-4.018-.354-.5-.46-.522-3.177-.522-2.868,0-3,.027-3.284.655-.15.336-.168.655-.168,4.009v3.655h-1.5v-12.913l-.3-.3a1.19,1.19,0,0,0-.637-.354,42.724,42.724,0,0,0-5.009.027,1.326,1.326,0,0,0-.549.363l-.23.274v12.9H68.8v-7.612l-.3-.336-.3-.327-2.593-.027c-2.806-.027-2.93-.009-3.31.443l-.221.266v7.594h-1.5l-.018-7.912c-.027-7.851-.027-7.921-.212-8.169-.389-.531-.54-.558-3.222-.558A11.558,11.558,0,0,0,54.4-426.867Zm4.647,8.957.018,7.55H55.263V-425.5l1.885.018,1.876.027Zm16.568,1.531v6.018H71.9V-422.4h3.717Zm-8.32,2.611v3.408H63.582v-6.815H67.3Zm16.639,0v3.408H80.133v-3.346c0-1.841.027-3.381.062-3.408a15.17,15.17,0,0,1,1.9-.062h1.841Z" transform="translate(-38.74 -77.477)" fill="#ff5344"/>
    <path id="Path_342" data-name="Path 342" d="M359.345-409.7a.752.752,0,0,0-.3,1.213c.186.2.257.212,1.274.212s1.089-.009,1.266-.2a.749.749,0,0,0-.035-1.044c-.2-.186-.31-.212-1.124-.23A4.443,4.443,0,0,0,359.345-409.7Z" transform="translate(-318.881 -93.189)" fill="#ff5344"/>
    <path id="Path_343" data-name="Path 343" d="M410.518-409.855a.754.754,0,0,0-.372,1.248c.195.186.283.195,2,.195a11.854,11.854,0,0,0,1.956-.089.753.753,0,0,0,.266-.389.717.717,0,0,0-.451-.929A20.633,20.633,0,0,0,410.518-409.855Z" transform="translate(-365.452 -93.055)" fill="#ff5344"/>
  </g>
</svg>
