<svg xmlns="http://www.w3.org/2000/svg" width="283.998" height="326.388" viewBox="0 0 283.998 326.388">
  <g id="Group_42" data-name="Group 42" transform="translate(-40.294 -105.643)">
    <circle id="Ellipse_22" data-name="Ellipse 22" cx="141.309" cy="141.309" r="141.309" transform="translate(41.674 105.643)" fill="#ffe4e2"/>
    <path id="Rectangle_22" data-name="Rectangle 22" d="M11.575,0H136.394A11.576,11.576,0,0,1,147.97,11.576V257.7a11.575,11.575,0,0,1-11.575,11.575H11.575A11.575,11.575,0,0,1,0,257.7V11.575A11.575,11.575,0,0,1,11.575,0Z" transform="translate(108.998 162.753)" fill="#4b4c6b"/>
    <path id="Path_279" data-name="Path 279" d="M189.031,146.708v2.565a8.051,8.051,0,0,1-8.05,8.051H128.624a8.052,8.052,0,0,1-8.051-8.051v-2.565H98.466a7.8,7.8,0,0,0-7.8,7.8V383.3a7.8,7.8,0,0,0,7.8,7.8H211.137a7.8,7.8,0,0,0,7.8-7.8V154.505a7.8,7.8,0,0,0-7.8-7.8Z" transform="translate(28.181 28.492)" fill="#fff"/>
    <circle id="Ellipse_23" data-name="Ellipse 23" cx="44.814" cy="44.814" r="44.814" transform="translate(119.606 256.257) rotate(-45)" fill="#f4ff70"/>
    <g id="Group_34" data-name="Group 34" transform="translate(141.944 225.72)">
      <path id="Rectangle_23" data-name="Rectangle 23" d="M21.517,0H45.592A21.517,21.517,0,0,1,67.109,21.517V34.753a0,0,0,0,1,0,0H0a0,0,0,0,1,0,0V21.517A21.517,21.517,0,0,1,21.517,0Z" transform="translate(6.921)" fill="#ff9861"/>
      <rect id="Rectangle_24" data-name="Rectangle 24" width="61.718" height="13.107" transform="translate(9.616 34.753)" fill="#da4a27"/>
      <rect id="Rectangle_25" data-name="Rectangle 25" width="61.718" height="13.107" transform="translate(9.616 47.86)" fill="#804c31"/>
      <path id="Rectangle_26" data-name="Rectangle 26" d="M0,0H67.109a0,0,0,0,1,0,0V9.989a8.037,8.037,0,0,1-8.037,8.037H8.037A8.037,8.037,0,0,1,0,9.989V0A0,0,0,0,1,0,0Z" transform="translate(6.921 60.968)" fill="#ff9861"/>
      <path id="Path_280" data-name="Path 280" d="M112.4,201.39s-6.442,1.948-6.891,4.494,4.195,5.392,10.336,3.445,7.939-3.353,14.531.646,9.288-.045,17.077-1.544,7.939-1.2,14.68,1.948,8.538-1.349,13.481-2.4,9.972,2.692,11.685-.6c1.946-3.746-7.789-5.993-7.789-5.993Z" transform="translate(-105.479 -166.637)" fill="#7fad27"/>
      <path id="Path_281" data-name="Path 281" d="M139.118,209.8H117.7L137,215.7a7.248,7.248,0,0,0,4.232,0L160.54,209.8Z" transform="translate(-98.643 -161.935)" fill="#f4ff70"/>
      <path id="Path_282" data-name="Path 282" d="M121.523,185.628a1.048,1.048,0,1,1-1.048-1.048A1.049,1.049,0,0,1,121.523,185.628Z" transform="translate(-97.676 -176.041)" fill="#fff"/>
      <path id="Path_283" data-name="Path 283" d="M142.657,185.628a1.049,1.049,0,1,1-1.049-1.048A1.049,1.049,0,0,1,142.657,185.628Z" transform="translate(-85.854 -176.041)" fill="#fff"/>
      <path id="Path_284" data-name="Path 284" d="M132.186,182.074a1.049,1.049,0,1,1-1.048-1.048A1.048,1.048,0,0,1,132.186,182.074Z" transform="translate(-91.711 -178.029)" fill="#fff"/>
      <path id="Path_285" data-name="Path 285" d="M136.989,189.951a1.049,1.049,0,1,1-1.048-1.049A1.048,1.048,0,0,1,136.989,189.951Z" transform="translate(-89.024 -173.623)" fill="#fff"/>
      <path id="Path_286" data-name="Path 286" d="M127.575,189.951a1.049,1.049,0,1,1-1.048-1.049A1.048,1.048,0,0,1,127.575,189.951Z" transform="translate(-94.291 -173.623)" fill="#fff"/>
    </g>
    <path id="Rectangle_27" data-name="Rectangle 27" d="M3.853,0H73.5a3.854,3.854,0,0,1,3.854,3.854V26.9A3.853,3.853,0,0,1,73.5,30.751H3.853A3.853,3.853,0,0,1,0,26.9V3.853A3.853,3.853,0,0,1,3.853,0Z" transform="translate(144.294 333.776)" fill="#f5c849"/>
    <g id="Group_35" data-name="Group 35" transform="translate(213.322 105.643)">
      <path id="Path_287" data-name="Path 287" d="M166.747,125.345l27.163,27.163-.845.843a5.934,5.934,0,1,0,8.392,8.392l4.961-4.962a5.777,5.777,0,0,0,0-8.169l-.9-.9-3.406-3.406-27.163-27.163Z" transform="translate(-140.522 -90.95)" fill="#fff"/>
      <path id="Path_288" data-name="Path 288" d="M190.411,114.816A22.675,22.675,0,1,0,164.425,140.8l16.415,3.537a11.032,11.032,0,0,0,13.108-13.108Z" transform="translate(-145.354 -95.776)" fill="#ff9861"/>
    </g>
    <g id="Group_36" data-name="Group 36" transform="translate(70.434 106.633)">
      <path id="Path_289" data-name="Path 289" d="M98.988,102.738a39.367,39.367,0,1,0,39.366,39.368A39.367,39.367,0,0,0,98.988,102.738Zm0,49.471a10.1,10.1,0,1,1,10.105-10.1A10.105,10.105,0,0,1,98.988,152.209Z" transform="translate(-59.622 -102.738)" fill="#ffd6c0"/>
      <path id="Path_290" data-name="Path 290" d="M131.819,133.458l-.02-.028a12.146,12.146,0,0,1-2.291-7.05v-.027a12.15,12.15,0,0,0-8.355-11.493l-.017-.006a12.155,12.155,0,0,1-6.013-4.371l0,0a12.152,12.152,0,0,0-13.531-4.394h0a12.157,12.157,0,0,1-7.443,0,12.151,12.151,0,0,0-13.531,4.394l0,0a12.136,12.136,0,0,1-6.013,4.371l-.017.006a12.149,12.149,0,0,0-8.355,11.493l0,.028a12.147,12.147,0,0,1-2.289,7.05l-.022.028a12.152,12.152,0,0,0,0,14.2l.02.028a12.159,12.159,0,0,1,2.289,7.05v.027a12.153,12.153,0,0,0,8.355,11.494l.017,0a12.155,12.155,0,0,1,6.013,4.371l0,0a12.153,12.153,0,0,0,13.531,4.394h0a12.157,12.157,0,0,1,7.443,0,12.153,12.153,0,0,0,13.531-4.394v0a12.14,12.14,0,0,1,6.015-4.371l.017-.006a12.151,12.151,0,0,0,8.355-11.493v-.028a12.159,12.159,0,0,1,2.289-7.05l.022-.028A12.154,12.154,0,0,0,131.819,133.458ZM97.867,153.611a13.052,13.052,0,1,1,13.052-13.051A13.052,13.052,0,0,1,97.867,153.611Z" transform="translate(-58.501 -101.192)" fill="#f77979"/>
      <path id="Path_291" data-name="Path 291" d="M91.53,115.839h0a1.738,1.738,0,0,1-1.737-1.737v-3.315a1.738,1.738,0,0,1,1.737-1.737h0a1.738,1.738,0,0,1,1.737,1.737V114.1A1.738,1.738,0,0,1,91.53,115.839Z" transform="translate(-42.744 -99.208)" fill="#804c31"/>
      <rect id="Rectangle_28" data-name="Rectangle 28" width="3.474" height="6.789" rx="1.114" transform="translate(26.446 54.129) rotate(90)" fill="#804c31"/>
      <path id="Path_292" data-name="Path 292" d="M101.809,138.16h0a1.735,1.735,0,0,1-2.455,0l-2.345-2.345a1.736,1.736,0,0,1,0-2.456h0a1.737,1.737,0,0,1,2.456,0l2.344,2.345A1.737,1.737,0,0,1,101.809,138.16Z" transform="translate(-38.991 -85.893)" fill="#804c31"/>
      <path id="Path_293" data-name="Path 293" d="M72.718,130.769h0a1.737,1.737,0,0,1-2.456,0l-2.344-2.345a1.736,1.736,0,0,1,0-2.456h0a1.736,1.736,0,0,1,2.456,0l2.344,2.345A1.737,1.737,0,0,1,72.718,130.769Z" transform="translate(-55.265 -90.028)" fill="#804c31"/>
      <path id="Path_294" data-name="Path 294" d="M97.438,124.651h0a1.739,1.739,0,0,1,0-2.456l2.345-2.345a1.739,1.739,0,0,1,2.456,0h0a1.737,1.737,0,0,1,0,2.456L99.9,124.651A1.738,1.738,0,0,1,97.438,124.651Z" transform="translate(-38.751 -93.45)" fill="#804c31"/>
      <path id="Path_295" data-name="Path 295" d="M86.572,147.141h0a1.738,1.738,0,0,1,0-2.458l2.344-2.344a1.737,1.737,0,0,1,2.456,0h0a1.737,1.737,0,0,1,0,2.456l-2.344,2.345A1.739,1.739,0,0,1,86.572,147.141Z" transform="translate(-44.831 -80.869)" fill="#804c31"/>
      <path id="Path_296" data-name="Path 296" d="M74.913,118.713h0a1.736,1.736,0,0,1,0-2.456l2.345-2.345a1.736,1.736,0,0,1,2.456,0h0a1.736,1.736,0,0,1,0,2.456l-2.345,2.345A1.737,1.737,0,0,1,74.913,118.713Z" transform="translate(-51.353 -96.772)" fill="#804c31"/>
    </g>
    <g id="Group_37" data-name="Group 37" transform="translate(54.856 248.76)">
      <path id="Path_297" data-name="Path 297" d="M54.187,187.512,51.835,189.5l-2.35,1.991,6.406,13.353a3.876,3.876,0,0,0,4.837,1.959h0a12.876,12.876,0,0,0,6.715-5.69h0a3.874,3.874,0,0,0-1.138-5.095Z" transform="translate(-36.797 -174.411)" fill="#ff9861"/>
      <path id="Path_298" data-name="Path 298" d="M67.056,193.473l-8.783,2.955-4.359,8.181a4.471,4.471,0,0,1-7.357.787l-1.715-2.026A14.734,14.734,0,0,1,46.558,182.6h0a14.736,14.736,0,0,1,20.768,1.715l1.717,2.026A4.471,4.471,0,0,1,67.056,193.473Z" transform="translate(-41.349 -179.111)" fill="#fff"/>
      <path id="Path_299" data-name="Path 299" d="M46.558,182.6a14.734,14.734,0,0,0-1.715,20.767l1.715,2.026a4.45,4.45,0,0,0,6.985-.259,3.58,3.58,0,0,1-4.24-.928l-1.385-1.631A11.876,11.876,0,0,1,66.04,187.225l1.383,1.631a3.583,3.583,0,0,1,.218,4.335,4.449,4.449,0,0,0,1.4-6.846l-1.717-2.026A14.736,14.736,0,0,0,46.558,182.6Z" transform="translate(-41.349 -179.111)" fill="#ff9861"/>
    </g>
    <g id="Group_38" data-name="Group 38" transform="translate(74.789 203.914)">
      <path id="Path_300" data-name="Path 300" d="M78.191,175.373l-3.06-.37-3.058-.371-5.441,13.774a3.874,3.874,0,0,0,1.851,4.879h0a12.87,12.87,0,0,0,8.737,1.059h0a3.874,3.874,0,0,0,2.963-4.3Z" transform="translate(-60.207 -159.801)" fill="#ff9861"/>
      <path id="Path_301" data-name="Path 301" d="M85.127,187.654l-8.139-4.435-8.96,2.363a4.472,4.472,0,0,1-5.58-4.861l.32-2.635a14.735,14.735,0,0,1,16.4-12.856h0a14.734,14.734,0,0,1,12.856,16.4l-.32,2.635A4.471,4.471,0,0,1,85.127,187.654Z" transform="translate(-62.415 -165.121)" fill="#fff"/>
      <path id="Path_302" data-name="Path 302" d="M79.168,165.23a14.735,14.735,0,0,0-16.4,12.856l-.32,2.635a4.45,4.45,0,0,0,4.937,4.946,3.579,3.579,0,0,1-2.2-3.741l.257-2.124a11.875,11.875,0,0,1,23.578,2.857l-.257,2.124a3.579,3.579,0,0,1-3.032,3.106,4.448,4.448,0,0,0,5.974-3.624l.32-2.635A14.734,14.734,0,0,0,79.168,165.23Z" transform="translate(-62.415 -165.121)" fill="#ff9861"/>
    </g>
    <g id="Group_39" data-name="Group 39" transform="translate(40.294 292.419)">
      <path id="Path_303" data-name="Path 303" d="M40.294,268.6l68.549-46.723,6.189,82.727h0a76.4,76.4,0,0,1-74.738-36Z" transform="translate(-40.294 -221.876)" fill="#ff9861"/>
      <path id="Path_304" data-name="Path 304" d="M110.971,293.689,105.6,221.876l-59.506,40.56A76.387,76.387,0,0,0,110.971,293.689Z" transform="translate(-37.05 -221.876)" fill="#f5c849"/>
      <path id="Path_305" data-name="Path 305" d="M71.529,256.292a8.541,8.541,0,1,1-3.987-11.4A8.54,8.54,0,0,1,71.529,256.292Z" transform="translate(-31.904 -209.477)" fill="#da4a27"/>
      <path id="Path_306" data-name="Path 306" d="M90,246.43a8.542,8.542,0,1,1-3.989-11.4A8.541,8.541,0,0,1,90,246.43Z" transform="translate(-21.57 -214.994)" fill="#da4a27"/>
      <rect id="Rectangle_29" data-name="Rectangle 29" width="7.2" height="3.661" transform="translate(55.058 53.302) rotate(25.721)" fill="#7fad27"/>
      <rect id="Rectangle_30" data-name="Rectangle 30" width="7.2" height="3.661" transform="translate(40.456 25.409) rotate(25.721)" fill="#7fad27"/>
    </g>
    <g id="Group_40" data-name="Group 40" transform="translate(243.433 321.945)">
      <path id="Path_307" data-name="Path 307" d="M238.092,280.3l-34.4,21.046a21.308,21.308,0,0,1-29.3-7.056h0a21.309,21.309,0,0,1,7.056-29.3l34.4-21.046a21.31,21.31,0,0,1,29.3,7.058h0A21.309,21.309,0,0,1,238.092,280.3Z" transform="translate(-170.169 -240.81)" fill="#ff9861"/>
      <path id="Path_308" data-name="Path 308" d="M239.023,264.091l-49.515,30.293a12.45,12.45,0,0,1-17.118-4.123h0a12.449,12.449,0,0,1,4.123-17.116l49.516-30.293a12.449,12.449,0,0,1,17.116,4.123h0A12.449,12.449,0,0,1,239.023,264.091Z" transform="translate(-170.56 -240.692)" fill="#da4a27"/>
      <path id="Path_309" data-name="Path 309" d="M241.463,274.8,197.681,301.59a15.811,15.811,0,0,1-21.738-5.237h0a15.809,15.809,0,0,1,5.237-21.737l43.782-26.786a15.809,15.809,0,0,1,21.737,5.237h0A15.81,15.81,0,0,1,241.463,274.8Z" transform="translate(-168.85 -238.184)" fill="#ff9861"/>
      <path id="Path_310" data-name="Path 310" d="M182.285,280.86l-4.426-7.231a5.959,5.959,0,0,1,1.974-8.192h0a5.958,5.958,0,0,1,8.19,1.973l1.079,1.764a6.41,6.41,0,0,0,8.814,2.122h0a6.41,6.41,0,0,0,2.124-8.814l-.837-1.369a6.42,6.42,0,0,1,2.127-8.826h0a6.42,6.42,0,0,1,8.826,2.125l1.254,2.049a5.612,5.612,0,0,0,7.718,1.859h0a5.612,5.612,0,0,0,1.859-7.718l-4.6-7.526" transform="translate(-166.966 -239.542)" fill="none" stroke="#f4ff70" stroke-linecap="round" stroke-miterlimit="10" stroke-width="2.351"/>
    </g>
    <g id="Group_41" data-name="Group 41" transform="translate(269.564 227.215)">
      <path id="Path_311" data-name="Path 311" d="M190.875,187.25l-5.132,40.865,32.329,5.821,9.443-40.089Z" transform="translate(-185.742 -172.794)" fill="#fff"/>
      <rect id="Rectangle_31" data-name="Rectangle 31" width="42.704" height="11.322" rx="1.213" transform="translate(4.445 2.828) rotate(10.207)" fill="#fff"/>
      <path id="Path_312" data-name="Path 312" d="M225.839,185.822l-33.406-6.015h0a4.38,4.38,0,0,1,5.086-3.534l24.786,4.463a4.378,4.378,0,0,1,3.534,5.086Z" transform="translate(-183.678 -176.202)" fill="#e9e5f6"/>
      <path id="Path_313" data-name="Path 313" d="M220.439,220.674l5.028-21.346L189.6,192.871l-2.733,21.76Z" transform="translate(-185.394 -171.06)" fill="#804c31"/>
      <path id="Path_314" data-name="Path 314" d="M225.3,198.714l1.146-4.867-36.64-6.6-.623,4.962Z" transform="translate(-184.679 -172.794)" fill="#e9e5f6"/>
    </g>
    <text id="ORDER" transform="translate(183.294 355.776)" fill="#fff" font-size="17" font-family="Montserrat-Regular, Montserrat"><tspan x="-32.13" y="0">ORDER</tspan></text>
    <path id="Path_315" data-name="Path 315" d="M216.085,124.177h-2.249a2.623,2.623,0,0,1-2.625-2.623v-2.249a2.532,2.532,0,0,0-2.03-2.539,2.442,2.442,0,0,0-2.851,2.408v2.38a2.623,2.623,0,0,1-2.623,2.623h-2.25a2.532,2.532,0,0,0-2.537,2.03,2.442,2.442,0,0,0,2.408,2.851h2.38a2.623,2.623,0,0,1,2.623,2.625v2.249a2.532,2.532,0,0,0,2.03,2.537,2.441,2.441,0,0,0,2.851-2.406v-2.38a2.624,2.624,0,0,1,2.625-2.625h2.378a2.442,2.442,0,0,0,2.408-2.851A2.532,2.532,0,0,0,216.085,124.177Z" transform="translate(88.72 11.724)" fill="#f5c849"/>
    <path id="Path_316" data-name="Path 316" d="M82,296.308H79.751a2.624,2.624,0,0,1-2.624-2.623v-2.25A2.53,2.53,0,0,0,75.1,288.9a2.443,2.443,0,0,0-2.851,2.408v2.38a2.623,2.623,0,0,1-2.623,2.623H67.374a2.532,2.532,0,0,0-2.539,2.03,2.442,2.442,0,0,0,2.408,2.851h2.38a2.623,2.623,0,0,1,2.623,2.625v2.249a2.532,2.532,0,0,0,2.03,2.537,2.441,2.441,0,0,0,2.851-2.406v-2.38a2.624,2.624,0,0,1,2.624-2.625h2.38a2.441,2.441,0,0,0,2.406-2.851A2.531,2.531,0,0,0,82,296.308Z" transform="translate(13.71 108.017)" fill="#f5c849"/>
    <path id="Path_317" data-name="Path 317" d="M61.427,153.5H59.178a2.623,2.623,0,0,1-2.623-2.623v-2.25a2.532,2.532,0,0,0-2.032-2.537,2.441,2.441,0,0,0-2.849,2.408v2.38A2.624,2.624,0,0,1,49.05,153.5H46.8a2.531,2.531,0,0,0-2.537,2.03,2.441,2.441,0,0,0,2.406,2.851h2.38A2.625,2.625,0,0,1,51.674,161v2.249a2.53,2.53,0,0,0,2.03,2.537,2.442,2.442,0,0,0,2.851-2.408V161a2.623,2.623,0,0,1,2.623-2.625h2.38a2.442,2.442,0,0,0,2.408-2.851A2.533,2.533,0,0,0,61.427,153.5Z" transform="translate(2.202 28.125)" fill="#f5c849"/>
  </g>
</svg>
