<svg xmlns="http://www.w3.org/2000/svg" width="282.618" height="326.388" viewBox="0 0 282.618 326.388">
  <g id="Group_51" data-name="Group 51" transform="translate(-689.273 -1498.867)">
    <circle id="Ellipse_33" data-name="Ellipse 33" cx="141.309" cy="141.309" r="141.309" transform="translate(689.273 1498.867)" fill="#ffe4e2"/>
    <g id="Group_50" data-name="Group 50" transform="translate(405 1402.797)">
      <g id="Group_43" data-name="Group 43" transform="translate(420.236 151.155)">
        <rect id="Rectangle_33" data-name="Rectangle 33" width="82.856" height="140.929" rx="2.73" transform="translate(43.418 0) rotate(17.944)" fill="#b2ce7d"/>
        <path id="Path_318" data-name="Path 318" d="M393.9,259.035l42.955,13.91a12.055,12.055,0,0,1,15.18-7.754l32.373-99.966a12.055,12.055,0,0,1-7.754-15.18L433.7,136.134a12.052,12.052,0,0,1-15.18,7.753l-32.373,99.968A12.053,12.053,0,0,1,393.9,259.035Z" transform="translate(-374.154 -124.739)" fill="#7fad27"/>
        <circle id="Ellipse_24" data-name="Ellipse 24" cx="22.406" cy="22.406" r="22.406" transform="matrix(0.899, -0.438, 0.438, 0.899, 31.161, 69.483)" fill="#b2ce7d"/>
        <path id="Path_319" data-name="Path 319" d="M432.182,168.047a9.427,9.427,0,1,1,11.873-6.065A9.427,9.427,0,0,1,432.182,168.047Z" transform="translate(-360.73 -120.147)" fill="#b2ce7d"/>
        <path id="Path_320" data-name="Path 320" d="M412.426,229.058a9.426,9.426,0,1,1,11.871-6.064A9.426,9.426,0,0,1,412.426,229.058Z" transform="translate(-367.442 -99.421)" fill="#b2ce7d"/>
      </g>
      <g id="Group_44" data-name="Group 44" transform="translate(413.243 113.235)">
        <path id="Path_321" data-name="Path 321" d="M450.466,235.305a3.608,3.608,0,0,0,3.606-3.608V139.05l-32.539-10.538a3.609,3.609,0,0,0-4.543,2.32L383.159,235.305Z" transform="translate(-368.79 -91.174)" opacity="0.2"/>
        <rect id="Rectangle_34" data-name="Rectangle 34" width="81.726" height="139.007" rx="2.73" fill="#b2ce7d"/>
        <path id="Path_322" data-name="Path 322" d="M389.25,232.02h44.535a11.889,11.889,0,0,1,11.889-11.889V116.485A11.889,11.889,0,0,1,433.785,104.6H389.25a11.89,11.89,0,0,1-11.889,11.889V220.131A11.89,11.89,0,0,1,389.25,232.02Z" transform="translate(-370.654 -98.805)" fill="#7fad27"/>
        <circle id="Ellipse_25" data-name="Ellipse 25" cx="22.101" cy="22.101" r="22.101" transform="translate(9.608 69.503) rotate(-45)" fill="#b2ce7d"/>
        <path id="Path_323" data-name="Path 323" d="M405.471,132.3a9.3,9.3,0,1,1,9.3-9.3A9.3,9.3,0,0,1,405.471,132.3Z" transform="translate(-364.607 -95.875)" fill="#b2ce7d"/>
        <path id="Path_324" data-name="Path 324" d="M405.471,196.435a9.3,9.3,0,1,1,9.3-9.3A9.3,9.3,0,0,1,405.471,196.435Z" transform="translate(-364.607 -75.261)" fill="#b2ce7d"/>
      </g>
      <g id="Group_45" data-name="Group 45" transform="translate(350.689 140.358)">
        <rect id="Rectangle_35" data-name="Rectangle 35" width="132.842" height="241.749" rx="11.375" fill="#4b4c6b"/>
        <path id="Path_325" data-name="Path 325" d="M422.892,135v2.3a7.227,7.227,0,0,1-7.227,7.227h-47a7.227,7.227,0,0,1-7.227-7.227V135H341.587a7,7,0,0,0-7,7V347.4a7,7,0,0,0,7,7H442.74a7,7,0,0,0,7-7V142a7,7,0,0,0-7-7Z" transform="translate(-325.742 -123.825)" fill="#fff"/>
        <rect id="Rectangle_36" data-name="Rectangle 36" width="47.765" height="9.203" transform="translate(20.882 39.001)" fill="#b4b0d5"/>
        <rect id="Rectangle_37" data-name="Rectangle 37" width="32.866" height="6.021" transform="translate(20.882 70.991)" fill="#b4b0d5"/>
        <rect id="Rectangle_38" data-name="Rectangle 38" width="21.692" height="6.021" transform="translate(92.201 70.991)" fill="#b4b0d5"/>
        <rect id="Rectangle_39" data-name="Rectangle 39" width="37.686" height="6.021" transform="translate(20.882 89.51)" fill="#b4b0d5"/>
        <rect id="Rectangle_40" data-name="Rectangle 40" width="21.692" height="6.021" transform="translate(92.201 89.51)" fill="#b4b0d5"/>
        <rect id="Rectangle_41" data-name="Rectangle 41" width="29.141" height="6.021" transform="translate(20.882 108.028)" fill="#b4b0d5"/>
        <rect id="Rectangle_42" data-name="Rectangle 42" width="21.692" height="6.021" transform="translate(92.201 108.028)" fill="#b4b0d5"/>
        <rect id="Rectangle_43" data-name="Rectangle 43" width="37.686" height="6.021" transform="translate(20.882 126.547)" fill="#b4b0d5"/>
        <rect id="Rectangle_44" data-name="Rectangle 44" width="21.692" height="6.021" transform="translate(92.201 126.547)" fill="#b4b0d5"/>
        <rect id="Rectangle_45" data-name="Rectangle 45" width="47.765" height="6.021" transform="translate(20.882 145.066)" fill="#b4b0d5"/>
        <rect id="Rectangle_46" data-name="Rectangle 46" width="21.692" height="6.021" transform="translate(92.201 145.066)" fill="#b4b0d5"/>
        <rect id="Rectangle_47" data-name="Rectangle 47" width="47.765" height="6.021" transform="translate(20.882 163.585)" fill="#b4b0d5"/>
        <rect id="Rectangle_48" data-name="Rectangle 48" width="21.692" height="6.021" transform="translate(92.201 163.585)" fill="#b4b0d5"/>
        <rect id="Rectangle_49" data-name="Rectangle 49" width="27.717" height="6.021" transform="translate(40.93 190.207)" fill="#b4b0d5"/>
        <rect id="Rectangle_50" data-name="Rectangle 50" width="21.692" height="6.021" transform="translate(92.201 190.207)" fill="#b4b0d5"/>
      </g>
      <g id="Group_46" data-name="Group 46" transform="translate(391.619 326.347)">
        <rect id="Rectangle_51" data-name="Rectangle 51" width="121.933" height="79.602" rx="4.137" transform="translate(0 0)" fill="#4b4c6b"/>
        <path id="Path_337" data-name="Path 337" d="M0,0H121.933V17.748H0Z" transform="translate(0 48.927)" fill="#b4b0d5"/>
        <rect id="Rectangle_53" data-name="Rectangle 53" width="27.936" height="18.405" rx="2.249" transform="translate(85.78 12.775)" fill="#f4ff70"/>
        <line id="Line_3" data-name="Line 3" y2="18.405" transform="translate(91.039 12.775)" fill="none" stroke="#f5c849" stroke-miterlimit="10" stroke-width="1.845"/>
        <line id="Line_4" data-name="Line 4" x2="22.678" transform="translate(91.039 18.362)" fill="none" stroke="#f5c849" stroke-miterlimit="10" stroke-width="1.845"/>
        <line id="Line_5" data-name="Line 5" x2="22.678" transform="translate(91.039 25.229)" fill="none" stroke="#f5c849" stroke-miterlimit="10" stroke-width="1.845"/>
        <rect id="Rectangle_54" data-name="Rectangle 54" width="37.248" height="4.601" transform="translate(10.627 34.028)" fill="#fff"/>
        <rect id="Rectangle_55" data-name="Rectangle 55" width="12.599" height="4.601" transform="translate(54.338 34.028)" fill="#fff"/>
        <path id="Path_326" data-name="Path 326" d="M379.577,272.233a7.614,7.614,0,1,1-7.615-7.614A7.615,7.615,0,0,1,379.577,272.233Z" transform="translate(-354.033 -254.765)" fill="#e56e1c"/>
        <path id="Path_327" data-name="Path 327" d="M387.419,272.233a7.614,7.614,0,1,1-7.614-7.614A7.615,7.615,0,0,1,387.419,272.233Z" transform="translate(-350.702 -254.765)" fill="#7fad27"/>
      </g>
      <g id="Group_47" data-name="Group 47" transform="translate(346.811 367.023)">
        <path id="Path_328" data-name="Path 328" d="M336.265,296.862a25.457,25.457,0,0,0-3.905,30.94l-.588.588,4.493,4.494a25.471,25.471,0,0,0,36.022-36.022l-4.493-4.494-.588.588A25.457,25.457,0,0,0,336.265,296.862Z" transform="translate(-324.312 -284.909)" fill="#ff9861"/>
        <circle id="Ellipse_26" data-name="Ellipse 26" cx="25.471" cy="25.471" r="25.471" fill="#f5c849"/>
        <circle id="Ellipse_27" data-name="Ellipse 27" cx="19.117" cy="19.117" r="19.117" transform="translate(6.354 6.354)" fill="#ff9861"/>
        <circle id="Ellipse_28" data-name="Ellipse 28" cx="12.215" cy="12.215" r="12.215" transform="translate(13.256 13.256)" fill="#f5c849"/>
      </g>
      <g id="Group_48" data-name="Group 48" transform="translate(316.136 308.483)">
        <path id="Path_329" data-name="Path 329" d="M314.734,255.772a25.459,25.459,0,0,0-3.905,30.942l-.588.587,4.493,4.494a25.471,25.471,0,1,0,36.021-36.022l-4.492-4.493-.588.588A25.457,25.457,0,0,0,314.734,255.772Z" transform="translate(-302.78 -243.82)" fill="#ff9861"/>
        <path id="Path_330" data-name="Path 330" d="M311.586,252.624a25.471,25.471,0,1,1,0,36.022A25.474,25.474,0,0,1,311.586,252.624Z" transform="translate(-304.126 -245.164)" fill="#f5c849"/>
        <circle id="Ellipse_29" data-name="Ellipse 29" cx="19.117" cy="19.117" r="19.117" transform="translate(6.354 6.354)" fill="#ff9861"/>
        <path id="Path_331" data-name="Path 331" d="M317.007,258.047a12.215,12.215,0,1,1,0,17.274A12.215,12.215,0,0,1,317.007,258.047Z" transform="translate(-300.174 -241.213)" fill="#f5c849"/>
      </g>
      <g id="Group_49" data-name="Group 49" transform="translate(297.308 204.553)">
        <path id="Path_332" data-name="Path 332" d="M321.313,161.656a19.6,19.6,0,0,0-23.821-3.007l-.453-.452-3.458,3.458a19.61,19.61,0,0,0,27.732,27.733l3.459-3.46-.453-.452A19.6,19.6,0,0,0,321.313,161.656Z" transform="translate(-287.838 -152.453)" fill="#ff9861"/>
        <circle id="Ellipse_30" data-name="Ellipse 30" cx="19.61" cy="19.61" r="19.61" transform="translate(3.459)" fill="#f5c849"/>
        <circle id="Ellipse_31" data-name="Ellipse 31" cx="14.718" cy="14.718" r="14.718" transform="translate(8.351 4.892)" fill="#ff9861"/>
        <path id="Path_333" data-name="Path 333" d="M316.35,164.819a9.4,9.4,0,1,1-13.3,0A9.4,9.4,0,0,1,316.35,164.819Z" transform="translate(-286.631 -151.859)" fill="#f5c849"/>
      </g>
      <path id="Path_334" data-name="Path 334" d="M304.661,233.755h-2.019a2.356,2.356,0,0,1-2.355-2.356V229.38a2.273,2.273,0,0,0-1.824-2.278,2.192,2.192,0,0,0-2.559,2.161V231.4a2.356,2.356,0,0,1-2.355,2.356h-2.02a2.272,2.272,0,0,0-2.278,1.822,2.192,2.192,0,0,0,2.161,2.559h2.137a2.356,2.356,0,0,1,2.355,2.356v2.019a2.272,2.272,0,0,0,1.822,2.278,2.193,2.193,0,0,0,2.56-2.161v-2.136a2.356,2.356,0,0,1,2.355-2.356h2.136a2.192,2.192,0,0,0,2.161-2.559A2.272,2.272,0,0,0,304.661,233.755Z" transform="translate(5.681 55.635)" fill="#f5c849"/>
      <path id="Path_335" data-name="Path 335" d="M464.362,276.915h-2.02a2.355,2.355,0,0,1-2.355-2.355v-2.02a2.272,2.272,0,0,0-1.824-2.278,2.193,2.193,0,0,0-2.559,2.161v2.137a2.355,2.355,0,0,1-2.355,2.355H451.23a2.272,2.272,0,0,0-2.278,1.822,2.192,2.192,0,0,0,2.16,2.56h2.137a2.355,2.355,0,0,1,2.355,2.355v2.019a2.273,2.273,0,0,0,1.824,2.278,2.193,2.193,0,0,0,2.559-2.161v-2.136a2.355,2.355,0,0,1,2.355-2.355h2.137a2.194,2.194,0,0,0,2.161-2.56A2.272,2.272,0,0,0,464.362,276.915Z" transform="translate(73.504 73.965)" fill="#f5c849"/>
      <path id="Path_336" data-name="Path 336" d="M458.132,118.24h-2.019a2.354,2.354,0,0,1-2.355-2.355v-2.02a2.273,2.273,0,0,0-1.824-2.278,2.192,2.192,0,0,0-2.559,2.161v2.137a2.356,2.356,0,0,1-2.356,2.355H445a2.272,2.272,0,0,0-2.278,1.822,2.193,2.193,0,0,0,2.161,2.56h2.136a2.356,2.356,0,0,1,2.356,2.355V127a2.272,2.272,0,0,0,1.822,2.278,2.192,2.192,0,0,0,2.559-2.161v-2.136a2.356,2.356,0,0,1,2.356-2.355h2.136a2.193,2.193,0,0,0,2.161-2.56A2.272,2.272,0,0,0,458.132,118.24Z" transform="translate(79.733 6.577)" fill="#f5c849"/>
    </g>
  </g>
</svg>
